<svg width="537" height="199" viewBox="0 0 537 199" fill="none" xmlns="http://www.w3.org/2000/svg">
<g filter="url(#filter0_b_6_2)">
<mask id="path-1-outside-1_6_2" maskUnits="userSpaceOnUse" x="199" y="54" width="274" height="102" fill="black">
<rect fill="white" x="199" y="54" width="274" height="102"/>
<path d="M203.896 150V58.48H210.04V150H203.896ZM242.235 150V67.312C249.574 66.7147 255.803 66.416 260.923 66.416C268.774 66.416 275.259 68.464 280.379 72.56C285.499 76.5707 288.059 82.3307 288.059 89.84C288.059 94.8747 286.608 99.5253 283.707 103.792C280.806 108.059 277.52 111.515 273.851 114.16C284.006 127.643 290.278 135.707 292.667 138.352C297.531 143.387 302.822 146.245 308.539 146.928L308.411 150.896C303.632 150.811 299.75 150.128 296.763 148.848C293.776 147.483 290.79 145.221 287.803 142.064C284.902 138.907 278.459 130.416 268.475 116.592C261.563 116.592 254.779 116.379 248.123 115.952V150H242.235ZM265.275 111.728C268.603 111.728 272.187 109.509 276.027 105.072C279.867 100.635 281.787 95.472 281.787 89.584C281.787 83.696 279.782 79.216 275.771 76.144C271.76 73.072 266.555 71.536 260.155 71.536C256.742 71.536 252.731 71.7067 248.123 72.048V111.088C254.267 111.515 259.984 111.728 265.275 111.728ZM319.982 67.312C326.041 66.8 332.27 66.544 338.67 66.544C345.07 66.544 350.531 68.08 355.054 71.152C359.662 74.224 361.966 78.704 361.966 84.592C361.966 89.0293 360.771 93.1253 358.382 96.88C355.993 100.635 353.091 103.493 349.678 105.456C355.225 107.077 359.833 109.979 363.502 114.16C367.171 118.341 369.006 123.077 369.006 128.368C369.006 135.707 366.659 141.253 361.966 145.008C357.358 148.763 350.83 150.64 342.382 150.64C333.934 150.64 326.467 150.341 319.982 149.744V67.312ZM331.63 108.016L325.87 108.144V144.88C329.539 145.221 335.47 145.392 343.662 145.392C349.209 145.392 353.774 143.856 357.358 140.784C361.027 137.627 362.862 133.701 362.862 129.008C362.862 124.229 361.027 120.091 357.358 116.592C353.774 113.008 349.081 110.491 343.278 109.04C340.291 108.357 336.409 108.016 331.63 108.016ZM356.206 84.464C356.206 80.2827 354.457 77.0827 350.958 74.864C347.459 72.56 343.278 71.408 338.414 71.408C333.55 71.408 329.369 71.536 325.87 71.792V103.152C333.294 103.152 339.225 103.365 343.662 103.792C346.99 102 349.891 99.3973 352.366 95.984C354.926 92.4853 356.206 88.6453 356.206 84.464ZM393.36 150V66.928H399.248V150H393.36ZM446.753 70.512C442.145 70.512 438.39 71.6213 435.489 73.84C432.588 76.0587 431.137 79.1733 431.137 83.184C431.137 87.792 433.057 91.9307 436.897 95.6C439.628 98.2453 443.126 101.061 447.393 104.048C451.745 106.949 454.732 109.04 456.353 110.32C457.974 111.6 459.937 113.349 462.241 115.568C466.422 119.749 468.513 124.571 468.513 130.032C468.513 137.115 466.124 142.491 461.345 146.16C456.652 149.744 450.038 151.536 441.505 151.536C433.057 151.536 425.974 149.317 420.257 144.88L423.329 140.4C429.132 144.325 435.276 146.288 441.761 146.288C448.246 146.288 453.281 144.923 456.865 142.192C460.534 139.461 462.369 135.621 462.369 130.672C462.369 126.405 460.534 122.48 456.865 118.896C454.305 116.336 450.849 113.563 446.497 110.576C442.23 107.589 439.244 105.456 437.537 104.176C435.83 102.811 433.825 101.019 431.521 98.8C427.169 94.448 424.993 89.4133 424.993 83.696C424.993 77.9787 426.998 73.4987 431.009 70.256C435.105 67.0133 440.737 65.392 447.905 65.392C455.073 65.392 461.516 66.8 467.233 69.616L465.057 74.352C459.766 71.792 453.665 70.512 446.753 70.512Z"/>
</mask>
<path d="M203.896 150V58.48H210.04V150H203.896ZM242.235 150V67.312C249.574 66.7147 255.803 66.416 260.923 66.416C268.774 66.416 275.259 68.464 280.379 72.56C285.499 76.5707 288.059 82.3307 288.059 89.84C288.059 94.8747 286.608 99.5253 283.707 103.792C280.806 108.059 277.52 111.515 273.851 114.16C284.006 127.643 290.278 135.707 292.667 138.352C297.531 143.387 302.822 146.245 308.539 146.928L308.411 150.896C303.632 150.811 299.75 150.128 296.763 148.848C293.776 147.483 290.79 145.221 287.803 142.064C284.902 138.907 278.459 130.416 268.475 116.592C261.563 116.592 254.779 116.379 248.123 115.952V150H242.235ZM265.275 111.728C268.603 111.728 272.187 109.509 276.027 105.072C279.867 100.635 281.787 95.472 281.787 89.584C281.787 83.696 279.782 79.216 275.771 76.144C271.76 73.072 266.555 71.536 260.155 71.536C256.742 71.536 252.731 71.7067 248.123 72.048V111.088C254.267 111.515 259.984 111.728 265.275 111.728ZM319.982 67.312C326.041 66.8 332.27 66.544 338.67 66.544C345.07 66.544 350.531 68.08 355.054 71.152C359.662 74.224 361.966 78.704 361.966 84.592C361.966 89.0293 360.771 93.1253 358.382 96.88C355.993 100.635 353.091 103.493 349.678 105.456C355.225 107.077 359.833 109.979 363.502 114.16C367.171 118.341 369.006 123.077 369.006 128.368C369.006 135.707 366.659 141.253 361.966 145.008C357.358 148.763 350.83 150.64 342.382 150.64C333.934 150.64 326.467 150.341 319.982 149.744V67.312ZM331.63 108.016L325.87 108.144V144.88C329.539 145.221 335.47 145.392 343.662 145.392C349.209 145.392 353.774 143.856 357.358 140.784C361.027 137.627 362.862 133.701 362.862 129.008C362.862 124.229 361.027 120.091 357.358 116.592C353.774 113.008 349.081 110.491 343.278 109.04C340.291 108.357 336.409 108.016 331.63 108.016ZM356.206 84.464C356.206 80.2827 354.457 77.0827 350.958 74.864C347.459 72.56 343.278 71.408 338.414 71.408C333.55 71.408 329.369 71.536 325.87 71.792V103.152C333.294 103.152 339.225 103.365 343.662 103.792C346.99 102 349.891 99.3973 352.366 95.984C354.926 92.4853 356.206 88.6453 356.206 84.464ZM393.36 150V66.928H399.248V150H393.36ZM446.753 70.512C442.145 70.512 438.39 71.6213 435.489 73.84C432.588 76.0587 431.137 79.1733 431.137 83.184C431.137 87.792 433.057 91.9307 436.897 95.6C439.628 98.2453 443.126 101.061 447.393 104.048C451.745 106.949 454.732 109.04 456.353 110.32C457.974 111.6 459.937 113.349 462.241 115.568C466.422 119.749 468.513 124.571 468.513 130.032C468.513 137.115 466.124 142.491 461.345 146.16C456.652 149.744 450.038 151.536 441.505 151.536C433.057 151.536 425.974 149.317 420.257 144.88L423.329 140.4C429.132 144.325 435.276 146.288 441.761 146.288C448.246 146.288 453.281 144.923 456.865 142.192C460.534 139.461 462.369 135.621 462.369 130.672C462.369 126.405 460.534 122.48 456.865 118.896C454.305 116.336 450.849 113.563 446.497 110.576C442.23 107.589 439.244 105.456 437.537 104.176C435.83 102.811 433.825 101.019 431.521 98.8C427.169 94.448 424.993 89.4133 424.993 83.696C424.993 77.9787 426.998 73.4987 431.009 70.256C435.105 67.0133 440.737 65.392 447.905 65.392C455.073 65.392 461.516 66.8 467.233 69.616L465.057 74.352C459.766 71.792 453.665 70.512 446.753 70.512Z" fill="url(#paint0_linear_6_2)"/>
<path d="M203.896 150H199.896V154H203.896V150ZM203.896 58.48V54.48H199.896V58.48H203.896ZM210.04 58.48H214.04V54.48H210.04V58.48ZM210.04 150V154H214.04V150H210.04ZM207.896 150V58.48H199.896V150H207.896ZM203.896 62.48H210.04V54.48H203.896V62.48ZM206.04 58.48V150H214.04V58.48H206.04ZM210.04 146H203.896V154H210.04V146ZM242.235 150H238.235V154H242.235V150ZM242.235 67.312L241.91 63.3252L238.235 63.6244V67.312H242.235ZM280.379 72.56L277.88 75.6835L277.896 75.6963L277.912 75.7089L280.379 72.56ZM283.707 103.792L287.015 106.041L287.015 106.041L283.707 103.792ZM273.851 114.16L271.512 110.915L268.199 113.304L270.656 116.566L273.851 114.16ZM292.667 138.352L289.699 141.033L289.744 141.083L289.79 141.131L292.667 138.352ZM308.539 146.928L312.537 147.057L312.655 143.391L309.013 142.956L308.539 146.928ZM308.411 150.896L308.34 154.895L312.282 154.966L312.409 151.025L308.411 150.896ZM296.763 148.848L295.1 152.486L295.143 152.506L295.187 152.525L296.763 148.848ZM287.803 142.064L284.858 144.77L284.877 144.792L284.897 144.813L287.803 142.064ZM268.475 116.592L271.718 114.25L270.52 112.592H268.475V116.592ZM248.123 115.952L248.379 111.96L244.123 111.687V115.952H248.123ZM248.123 150V154H252.123V150H248.123ZM276.027 105.072L273.002 102.454L273.002 102.454L276.027 105.072ZM275.771 76.144L278.203 72.9685L278.203 72.9685L275.771 76.144ZM248.123 72.048L247.828 68.0589L244.123 68.3333V72.048H248.123ZM248.123 111.088H244.123V114.82L247.846 115.078L248.123 111.088ZM246.235 150V67.312H238.235V150H246.235ZM242.56 71.2988C249.833 70.7068 255.947 70.416 260.923 70.416V62.416C255.659 62.416 249.315 62.7225 241.91 63.3252L242.56 71.2988ZM260.923 70.416C268.051 70.416 273.602 72.2611 277.88 75.6835L282.878 69.4365C276.916 64.6669 269.496 62.416 260.923 62.416V70.416ZM277.912 75.7089C281.907 78.8382 284.059 83.3456 284.059 89.84H292.059C292.059 81.3157 289.091 74.3031 282.846 69.4111L277.912 75.7089ZM284.059 89.84C284.059 94.0515 282.861 97.9219 280.399 101.543L287.015 106.041C290.355 101.129 292.059 95.6978 292.059 89.84H284.059ZM280.399 101.543C277.724 105.477 274.754 108.578 271.512 110.915L276.19 117.405C280.287 114.451 283.887 110.64 287.015 106.041L280.399 101.543ZM270.656 116.566C280.758 129.98 287.16 138.222 289.699 141.033L295.635 135.671C293.396 133.191 287.253 125.305 277.046 111.754L270.656 116.566ZM289.79 141.131C295.151 146.68 301.248 150.086 308.065 150.9L309.013 142.956C304.395 142.405 299.911 140.093 295.544 135.573L289.79 141.131ZM304.541 146.799L304.413 150.767L312.409 151.025L312.537 147.057L304.541 146.799ZM308.482 146.897C303.999 146.817 300.681 146.175 298.339 145.171L295.187 152.525C298.818 154.081 303.265 154.805 308.34 154.895L308.482 146.897ZM298.426 145.21C296.031 144.115 293.45 142.213 290.709 139.315L284.897 144.813C288.129 148.229 291.521 150.85 295.1 152.486L298.426 145.21ZM290.748 139.357C288.042 136.413 281.753 128.145 271.718 114.25L265.232 118.934C275.165 132.687 281.761 141.4 284.858 144.77L290.748 139.357ZM268.475 112.592C261.645 112.592 254.947 112.381 248.379 111.96L247.867 119.944C254.611 120.376 261.481 120.592 268.475 120.592V112.592ZM244.123 115.952V150H252.123V115.952H244.123ZM248.123 146H242.235V154H248.123V146ZM265.275 115.728C270.398 115.728 274.999 112.373 279.052 107.69L273.002 102.454C269.375 106.646 266.808 107.728 265.275 107.728V115.728ZM279.052 107.69C283.523 102.523 285.787 96.4298 285.787 89.584H277.787C277.787 94.5142 276.211 98.7468 273.002 102.454L279.052 107.69ZM285.787 89.584C285.787 82.684 283.373 76.9285 278.203 72.9685L273.339 79.3195C276.19 81.5035 277.787 84.708 277.787 89.584H285.787ZM278.203 72.9685C273.327 69.2333 267.197 67.536 260.155 67.536V75.536C265.913 75.536 270.194 76.9107 273.339 79.3195L278.203 72.9685ZM260.155 67.536C256.616 67.536 252.502 67.7127 247.828 68.0589L248.418 76.0371C252.96 75.7007 256.868 75.536 260.155 75.536V67.536ZM244.123 72.048V111.088H252.123V72.048H244.123ZM247.846 115.078C254.068 115.51 259.878 115.728 265.275 115.728V107.728C260.09 107.728 254.466 107.519 248.4 107.098L247.846 115.078ZM319.982 67.312L319.645 63.3262L315.982 63.6358V67.312H319.982ZM355.054 71.152L352.806 74.4609L352.821 74.4706L352.835 74.4802L355.054 71.152ZM349.678 105.456L347.684 101.988L339.553 106.664L348.556 109.295L349.678 105.456ZM363.502 114.16L360.495 116.798L360.496 116.798L363.502 114.16ZM361.966 145.008L359.467 141.885L359.453 141.896L359.439 141.907L361.966 145.008ZM319.982 149.744H315.982V153.393L319.615 153.727L319.982 149.744ZM331.63 108.016V104.016H331.586L331.541 104.017L331.63 108.016ZM325.87 108.144L325.781 104.145L321.87 104.232V108.144H325.87ZM325.87 144.88H321.87V148.525L325.5 148.863L325.87 144.88ZM357.358 140.784L359.961 143.821L359.967 143.816L357.358 140.784ZM357.358 116.592L354.53 119.42L354.563 119.454L354.598 119.487L357.358 116.592ZM343.278 109.04L344.248 105.159L344.209 105.15L344.169 105.141L343.278 109.04ZM350.958 74.864L348.758 78.2047L348.787 78.2236L348.816 78.242L350.958 74.864ZM325.87 71.792L325.578 67.8027L321.87 68.074V71.792H325.87ZM325.87 103.152H321.87V107.152H325.87V103.152ZM343.662 103.792L343.279 107.774L344.489 107.89L345.558 107.314L343.662 103.792ZM352.366 95.984L349.138 93.622L349.133 93.629L349.128 93.6361L352.366 95.984ZM320.319 71.2978C326.26 70.7957 332.377 70.544 338.67 70.544V62.544C332.163 62.544 325.822 62.8043 319.645 63.3262L320.319 71.2978ZM338.67 70.544C344.409 70.544 349.054 71.912 352.806 74.4609L357.302 67.8431C352.009 64.248 345.731 62.544 338.67 62.544V70.544ZM352.835 74.4802C356.249 76.7562 357.966 79.9408 357.966 84.592H365.966C365.966 77.4672 363.075 71.6918 357.273 67.8238L352.835 74.4802ZM357.966 84.592C357.966 88.2662 356.99 91.6176 355.007 94.7325L361.757 99.0275C364.553 94.633 365.966 89.7924 365.966 84.592H357.966ZM355.007 94.7325C352.919 98.0139 350.468 100.388 347.684 101.988L351.672 108.924C355.715 106.599 359.066 103.255 361.757 99.0275L355.007 94.7325ZM348.556 109.295C353.403 110.712 357.347 113.211 360.495 116.798L366.509 111.522C362.318 106.746 357.047 103.443 350.8 101.617L348.556 109.295ZM360.496 116.798C363.56 120.291 365.006 124.101 365.006 128.368H373.006C373.006 122.053 370.782 116.392 366.509 111.522L360.496 116.798ZM365.006 128.368C365.006 134.788 363.002 139.057 359.467 141.885L364.465 148.131C370.317 143.45 373.006 136.625 373.006 128.368H365.006ZM359.439 141.907C355.793 144.878 350.29 146.64 342.382 146.64V154.64C351.37 154.64 358.923 152.647 364.493 148.109L359.439 141.907ZM342.382 146.64C334.023 146.64 326.683 146.344 320.349 145.761L319.615 153.727C326.252 154.338 333.845 154.64 342.382 154.64V146.64ZM323.982 149.744V67.312H315.982V149.744H323.982ZM331.541 104.017L325.781 104.145L325.959 112.143L331.719 112.015L331.541 104.017ZM321.87 108.144V144.88H329.87V108.144H321.87ZM325.5 148.863C329.368 149.223 335.458 149.392 343.662 149.392V141.392C335.482 141.392 329.711 141.22 326.24 140.897L325.5 148.863ZM343.662 149.392C349.987 149.392 355.529 147.62 359.961 143.821L354.755 137.747C352.019 140.092 348.43 141.392 343.662 141.392V149.392ZM359.967 143.816C364.488 139.926 366.862 134.908 366.862 129.008H358.862C358.862 132.495 357.567 135.327 354.749 137.752L359.967 143.816ZM366.862 129.008C366.862 123.063 364.525 117.899 360.118 113.697L354.598 119.487C357.529 122.282 358.862 125.396 358.862 129.008H366.862ZM360.186 113.764C356.004 109.581 350.626 106.754 344.248 105.159L342.308 112.921C347.535 114.227 351.544 116.435 354.53 119.42L360.186 113.764ZM344.169 105.141C340.775 104.365 336.562 104.016 331.63 104.016V112.016C336.256 112.016 339.807 112.35 342.387 112.939L344.169 105.141ZM360.206 84.464C360.206 78.9283 357.769 74.4465 353.1 71.486L348.816 78.242C351.145 79.7188 352.206 81.637 352.206 84.464H360.206ZM353.158 71.5233C348.906 68.7234 343.931 67.408 338.414 67.408V75.408C342.625 75.408 346.012 76.3966 348.758 78.2047L353.158 71.5233ZM338.414 67.408C333.487 67.408 329.203 67.5374 325.578 67.8027L326.162 75.7813C329.534 75.5346 333.613 75.408 338.414 75.408V67.408ZM321.87 71.792V103.152H329.87V71.792H321.87ZM325.87 107.152C333.238 107.152 339.025 107.365 343.279 107.774L344.045 99.8104C339.425 99.3661 333.35 99.152 325.87 99.152V107.152ZM345.558 107.314C349.475 105.205 352.818 102.176 355.604 98.3319L349.128 93.6361C346.965 96.6189 344.505 98.795 341.766 100.27L345.558 107.314ZM355.594 98.346C358.636 94.1889 360.206 89.5275 360.206 84.464H352.206C352.206 87.7632 351.216 90.7817 349.138 93.622L355.594 98.346ZM393.36 150H389.36V154H393.36V150ZM393.36 66.928V62.928H389.36V66.928H393.36ZM399.248 66.928H403.248V62.928H399.248V66.928ZM399.248 150V154H403.248V150H399.248ZM397.36 150V66.928H389.36V150H397.36ZM393.36 70.928H399.248V62.928H393.36V70.928ZM395.248 66.928V150H403.248V66.928H395.248ZM399.248 146H393.36V154H399.248V146ZM435.489 73.84L433.059 70.6626L433.059 70.6626L435.489 73.84ZM436.897 95.6L439.68 92.727L439.67 92.7175L439.66 92.708L436.897 95.6ZM447.393 104.048L445.099 107.325L445.136 107.351L445.174 107.376L447.393 104.048ZM456.353 110.32L453.874 113.46L453.874 113.46L456.353 110.32ZM462.241 115.568L465.069 112.74L465.043 112.713L465.016 112.687L462.241 115.568ZM461.345 146.16L463.773 149.339L463.781 149.333L461.345 146.16ZM420.257 144.88L416.958 142.618L414.826 145.728L417.805 148.04L420.257 144.88ZM423.329 140.4L425.57 137.087L422.278 134.86L420.03 138.138L423.329 140.4ZM456.865 142.192L454.477 138.983L454.459 138.997L454.441 139.01L456.865 142.192ZM456.865 118.896L454.037 121.724L454.053 121.741L454.07 121.758L456.865 118.896ZM446.497 110.576L444.203 113.853L444.218 113.864L444.234 113.874L446.497 110.576ZM437.537 104.176L435.038 107.299L435.087 107.339L435.137 107.376L437.537 104.176ZM431.521 98.8L428.693 101.628L428.719 101.655L428.746 101.681L431.521 98.8ZM431.009 70.256L428.526 67.1198L428.51 67.1326L428.494 67.1455L431.009 70.256ZM467.233 69.616L470.868 71.286L472.493 67.748L469 66.0276L467.233 69.616ZM465.057 74.352L463.315 77.9526L466.988 79.73L468.692 76.022L465.057 74.352ZM446.753 66.512C441.5 66.512 436.823 67.7843 433.059 70.6626L437.919 77.0174C439.958 75.4584 442.79 74.512 446.753 74.512V66.512ZM433.059 70.6626C429.062 73.7196 427.137 78.0681 427.137 83.184H435.137C435.137 80.2786 436.114 78.3978 437.919 77.0174L433.059 70.6626ZM427.137 83.184C427.137 89.0539 429.635 94.1937 434.134 98.492L439.66 92.708C436.479 89.6677 435.137 86.5301 435.137 83.184H427.137ZM434.114 98.473C437.041 101.308 440.718 104.258 445.099 107.325L449.687 100.771C445.535 97.8648 442.215 95.1823 439.68 92.727L434.114 98.473ZM445.174 107.376C449.531 110.281 452.394 112.291 453.874 113.46L458.832 107.18C457.069 105.789 453.959 103.618 449.612 100.72L445.174 107.376ZM453.874 113.46C455.353 114.627 457.212 116.278 459.466 118.449L465.016 112.687C462.662 110.421 460.595 108.573 458.832 107.18L453.874 113.46ZM459.413 118.396C462.912 121.896 464.513 125.725 464.513 130.032H472.513C472.513 123.417 469.932 117.603 465.069 112.74L459.413 118.396ZM464.513 130.032C464.513 136.117 462.522 140.213 458.909 142.987L463.781 149.333C469.726 144.768 472.513 138.112 472.513 130.032H464.513ZM458.917 142.981C455.171 145.842 449.538 147.536 441.505 147.536V155.536C450.538 155.536 458.132 153.646 463.773 149.339L458.917 142.981ZM441.505 147.536C433.79 147.536 427.612 145.525 422.709 141.72L417.805 148.04C424.337 153.11 432.324 155.536 441.505 155.536V147.536ZM423.556 147.142L426.628 142.662L420.03 138.138L416.958 142.618L423.556 147.142ZM421.088 143.713C427.496 148.048 434.412 150.288 441.761 150.288V142.288C436.139 142.288 430.767 140.602 425.57 137.087L421.088 143.713ZM441.761 150.288C448.75 150.288 454.761 148.824 459.289 145.374L454.441 139.01C451.801 141.022 447.743 142.288 441.761 142.288V150.288ZM459.253 145.401C464.03 141.846 466.369 136.765 466.369 130.672H458.369C458.369 134.478 457.039 137.076 454.477 138.983L459.253 145.401ZM466.369 130.672C466.369 125.115 463.933 120.208 459.66 116.034L454.07 121.758C457.136 124.752 458.369 127.696 458.369 130.672H466.369ZM459.693 116.068C456.901 113.275 453.232 110.347 448.76 107.278L444.234 113.874C448.466 116.779 451.709 119.397 454.037 121.724L459.693 116.068ZM448.791 107.299C444.524 104.312 441.586 102.212 439.937 100.976L435.137 107.376C436.902 108.7 439.937 110.867 444.203 113.853L448.791 107.299ZM440.036 101.053C438.457 99.7898 436.548 98.0875 434.296 95.9187L428.746 101.681C431.102 103.95 433.203 105.832 435.038 107.299L440.036 101.053ZM434.349 95.9716C430.684 92.3063 428.993 88.266 428.993 83.696H420.993C420.993 90.5606 423.654 96.5897 428.693 101.628L434.349 95.9716ZM428.993 83.696C428.993 79.0376 430.563 75.7608 433.524 73.3665L428.494 67.1455C423.434 71.2365 420.993 76.9197 420.993 83.696H428.993ZM433.492 73.3922C436.659 70.885 441.306 69.392 447.905 69.392V61.392C440.168 61.392 433.551 63.1417 428.526 67.1198L433.492 73.3922ZM447.905 69.392C454.537 69.392 460.363 70.6913 465.466 73.2044L469 66.0276C462.668 62.9087 455.609 61.392 447.905 61.392V69.392ZM463.598 67.946L461.422 72.682L468.692 76.022L470.868 71.286L463.598 67.946ZM466.799 70.7514C460.878 67.8861 454.163 66.512 446.753 66.512V74.512C453.167 74.512 458.655 75.6979 463.315 77.9526L466.799 70.7514Z" fill="url(#paint1_linear_6_2)" mask="url(#path-1-outside-1_6_2)"/>
</g>
<path d="M76 48V150.5M76 150.5H173.5M76 150.5L119.5 105.5L134.5 123.5L173.5 50" stroke="url(#paint2_linear_6_2)" stroke-width="7"/>
<defs>
<filter id="filter0_b_6_2" x="199.896" y="54.48" width="272.617" height="101.056" filterUnits="userSpaceOnUse" color-interpolation-filters="sRGB">
<feFlood flood-opacity="0" result="BackgroundImageFix"/>
<feGaussianBlur in="BackgroundImageFix" stdDeviation="2"/>
<feComposite in2="SourceAlpha" operator="in" result="effect1_backgroundBlur_6_2"/>
<feBlend mode="normal" in="SourceGraphic" in2="effect1_backgroundBlur_6_2" result="shape"/>
</filter>
<linearGradient id="paint0_linear_6_2" x1="332" y1="39" x2="332" y2="189.706" gradientUnits="userSpaceOnUse">
<stop offset="0.385342" stop-color="#4876EF"/>
<stop offset="1" stop-color="#C9C9C9"/>
</linearGradient>
<linearGradient id="paint1_linear_6_2" x1="332" y1="39" x2="332" y2="189.706" gradientUnits="userSpaceOnUse">
<stop offset="0.372927" stop-color="#4876EF"/>
<stop offset="0.743165" stop-color="#9BACD7"/>
</linearGradient>
<linearGradient id="paint2_linear_6_2" x1="124.75" y1="48" x2="124.75" y2="150.5" gradientUnits="userSpaceOnUse">
<stop offset="0.18" stop-color="#26AE44"/>
<stop offset="0.79" stop-color="#9C0808"/>
</linearGradient>
</defs>
</svg>
