<svg width="602" height="142" viewBox="0 0 602 142" fill="none" xmlns="http://www.w3.org/2000/svg">
<g clip-path="url(#clip0_1_2)">
<path d="M127.531 100C123.312 100 119.656 99.2031 116.562 97.6094C113.469 95.9844 111.062 93.8125 109.344 91.0938C107.656 88.375 106.812 85.3906 106.812 82.1406V53.6406C106.812 50.3594 107.656 47.375 109.344 44.6875C111.062 41.9688 113.469 39.8125 116.562 38.2188C119.656 36.5938 123.312 35.7812 127.531 35.7812H141.969C146.188 35.7812 149.844 36.5938 152.938 38.2188C156.062 39.8125 158.469 41.9688 160.156 44.6875C161.844 47.375 162.688 50.3594 162.688 53.6406V82.1406C162.688 85.3906 161.844 88.375 160.156 91.0938C158.469 93.8125 156.062 95.9844 152.938 97.6094C149.844 99.2031 146.188 100 141.969 100H127.531ZM130.344 78.7656H142.906L147.688 78.2031L150.688 75.25L151.344 71.2188V40H146.375V70.7031L145.672 73.3281L142.625 73.7969H130.625L127.531 73.3281L126.875 70.5156V40H122V71.2188L122.562 75.25L125.609 78.2031L130.344 78.7656ZM183.031 100C178.812 100 175.156 99.2031 172.062 97.6094C168.969 95.9844 166.562 93.8125 164.844 91.0938C163.156 88.375 162.312 85.3906 162.312 82.1406V53.6406C162.312 50.3594 163.156 47.375 164.844 44.6875C166.562 41.9688 168.969 39.8125 172.062 38.2188C175.156 36.5938 178.812 35.7812 183.031 35.7812H197.469C201.688 35.7812 205.344 36.5938 208.438 38.2188C211.562 39.8125 213.969 41.9688 215.656 44.6875C217.344 47.375 218.188 50.3594 218.188 53.6406V82.1406C218.188 85.3906 217.344 88.375 215.656 91.0938C213.969 93.8125 211.562 95.9844 208.438 97.6094C205.344 99.2031 201.688 100 197.469 100H183.031ZM178.625 78.7656H183.641V63.1562H195.828L199.156 64.6562L199.859 67.1875V78.7656H204.828V66.6719L203.188 62.3594L197.844 60.4375L203 57.9531L204.453 53.7344V48.5312L203.891 44.5938L200.797 40.6562L196.109 40H178.625V78.7656ZM183.641 58.1406V44.9688H195.828L199.156 46.4219L199.484 49.1406V54.1094L198.781 56.6875L195.828 58.1406H183.641Z" fill="#EE4242"/>
<path d="M238.531 100C234.312 100 230.656 99.2031 227.562 97.6094C224.469 95.9844 222.062 93.8125 220.344 91.0938C218.656 88.375 217.812 85.3906 217.812 82.1406V53.6406C217.812 50.3594 218.656 47.375 220.344 44.6875C222.062 41.9688 224.469 39.8125 227.562 38.2188C230.656 36.5938 234.312 35.7812 238.531 35.7812H252.969C257.188 35.7812 260.844 36.5938 263.938 38.2188C267.062 39.8125 269.469 41.9688 271.156 44.6875C272.844 47.375 273.688 50.3594 273.688 53.6406V82.1406C273.688 85.3906 272.844 88.375 271.156 91.0938C269.469 93.8125 267.062 95.9844 263.938 97.6094C260.844 99.2031 257.188 100 252.969 100H238.531ZM241.062 78.7656H252.359L257.844 78.1094L256.672 73.0469L252.266 73.7969H241.344L238.25 73.3281L237.594 70.5156V47.9688L238.062 45.3906L241.344 44.875H252.078L256.906 45.6719L257.844 40.6562L252.359 40H241.062L236.234 40.5625L233.281 43.5625L232.578 47.5V71.3125L233.281 75.25L236.328 78.2031L241.062 78.7656ZM294.031 100C289.812 100 286.156 99.2031 283.062 97.6094C279.969 95.9844 277.562 93.8125 275.844 91.0938C274.156 88.375 273.312 85.3906 273.312 82.1406V53.6406C273.312 50.3594 274.156 47.375 275.844 44.6875C277.562 41.9688 279.969 39.8125 283.062 38.2188C286.156 36.5938 289.812 35.7812 294.031 35.7812H308.469C312.688 35.7812 316.344 36.5938 319.438 38.2188C322.562 39.8125 324.969 41.9688 326.656 44.6875C328.344 47.375 329.188 50.3594 329.188 53.6406V82.1406C329.188 85.3906 328.344 88.375 326.656 91.0938C324.969 93.8125 322.562 95.9844 319.438 97.6094C316.344 99.2031 312.688 100 308.469 100H294.031ZM289.625 78.7656H294.641V63.1562H306.828L310.156 64.6562L310.859 67.1875V78.7656H315.828V66.6719L314.188 62.3594L308.844 60.4375L314 57.9531L315.453 53.7344V48.5312L314.891 44.5938L311.797 40.6562L307.109 40H289.625V78.7656ZM294.641 58.1406V44.9688H306.828L310.156 46.4219L310.484 49.1406V54.1094L309.781 56.6875L306.828 58.1406H294.641ZM349.531 100C345.312 100 341.656 99.2031 338.562 97.6094C335.469 95.9844 333.062 93.8125 331.344 91.0938C329.656 88.375 328.812 85.3906 328.812 82.1406V53.6406C328.812 50.3594 329.656 47.375 331.344 44.6875C333.062 41.9688 335.469 39.8125 338.562 38.2188C341.656 36.5938 345.312 35.7812 349.531 35.7812H363.969C368.188 35.7812 371.844 36.5938 374.938 38.2188C378.062 39.8125 380.469 41.9688 382.156 44.6875C383.844 47.375 384.688 50.3594 384.688 53.6406V82.1406C384.688 85.3906 383.844 88.375 382.156 91.0938C380.469 93.8125 378.062 95.9844 374.938 97.6094C371.844 99.2031 368.188 100 363.969 100H349.531ZM342.828 78.7656H348.406L349.625 64.4688H366.922L368.281 78.7656H373.625L369.922 43.8438L367.016 40.9375L360.781 40H355.766L349.531 40.9375L346.672 43.8438L342.828 78.7656ZM350.047 59.9688L351.453 45.6719L356 44.9688H360.594L365 45.6719L366.547 59.9688H350.047ZM405.031 100C400.812 100 397.156 99.2031 394.062 97.6094C390.969 95.9844 388.562 93.8125 386.844 91.0938C385.156 88.375 384.312 85.3906 384.312 82.1406V53.6406C384.312 50.3594 385.156 47.375 386.844 44.6875C388.562 41.9688 390.969 39.8125 394.062 38.2188C397.156 36.5938 400.812 35.7812 405.031 35.7812H419.469C423.688 35.7812 427.344 36.5938 430.438 38.2188C433.562 39.8125 435.969 41.9688 437.656 44.6875C439.344 47.375 440.188 50.3594 440.188 53.6406V82.1406C440.188 85.3906 439.344 88.375 437.656 91.0938C435.969 93.8125 433.562 95.9844 430.438 97.6094C427.344 99.2031 423.688 100 419.469 100H405.031ZM403.109 78.7656H408.125V61.0469H423.781V56.125H408.125V44.9688H426.453V40H403.109V78.7656ZM460.531 100C456.312 100 452.656 99.2031 449.562 97.6094C446.469 95.9844 444.062 93.8125 442.344 91.0938C440.656 88.375 439.812 85.3906 439.812 82.1406V53.6406C439.812 50.3594 440.656 47.375 442.344 44.6875C444.062 41.9688 446.469 39.8125 449.562 38.2188C452.656 36.5938 456.312 35.7812 460.531 35.7812H474.969C479.188 35.7812 482.844 36.5938 485.938 38.2188C489.062 39.8125 491.469 41.9688 493.156 44.6875C494.844 47.375 495.688 50.3594 495.688 53.6406V82.1406C495.688 85.3906 494.844 88.375 493.156 91.0938C491.469 93.8125 489.062 95.9844 485.938 97.6094C482.844 99.2031 479.188 100 474.969 100H460.531ZM467.844 78.7656H472.859V44.9688H483.875V40H456.781V44.9688H467.844V78.7656Z" fill="#94ABA1"/>
</g>
<defs>
<clipPath id="clip0_1_2">
<rect width="602" height="142" fill="white"/>
</clipPath>
</defs>
</svg>
