<svg width="457" height="175" viewBox="0 0 457 175" fill="none" xmlns="http://www.w3.org/2000/svg">
<path d="M50.0391 99.9903L75.4125 88.6973L90.017 97.1671L92.9674 124.954L74.97 124.805L77.6253 105.488L74.5274 103.705L59.3328 115.593L50.0391 99.9903Z" fill="#B4C0D3"/>
<path d="M91.6406 95.9774L114.064 112.471L122.915 96.5718L104.917 89.2907V85.7245L122.915 78.2948L114.064 62.5439L91.6406 79.0378V95.9774Z" fill="#00D3AB"/>
<path d="M90.017 77.701L92.9674 49.9141L74.97 50.2112L77.6253 69.5284L74.5274 71.3115L59.1853 59.424L50.0391 74.8777L75.4125 86.1708L90.017 77.701Z" fill="#4876EF"/>
<path d="M150.58 81.1823V111H165V73H144V81.1823H150.58Z" fill="#4876EE"/>
<path d="M254.207 82.3976V113H270V74H247V82.3976H254.207Z" fill="#4876EE"/>
<path d="M146.625 66.3838C148.458 68.128 151.25 69 155 69C158.752 69 161.5 68.128 163.249 66.3838C165.085 64.5627 166 62.287 166 59.5573C166 56.7504 165.085 54.4749 163.249 52.7307C161.5 50.9105 158.752 50 155 50C151.25 50 148.458 50.9105 146.625 52.7307C144.876 54.4749 144 56.7504 144 59.5573C144 62.287 144.876 64.5627 146.625 66.3838Z" fill="#4876EE"/>
<path d="M251.386 66.3838C253.053 68.128 255.591 69 259 69C262.411 69 264.91 68.128 266.5 66.3838C268.168 64.5627 269 62.287 269 59.5573C269 56.7504 268.168 54.4749 266.5 52.7307C264.91 50.9105 262.411 50 259 50C255.591 50 253.053 50.9105 251.386 52.7307C249.796 54.4749 249 56.7504 249 59.5573C249 62.287 249.796 64.5627 251.386 66.3838Z" fill="#4876EE"/>
<path d="M281.844 110.633C284.091 111.544 286.851 112 290.124 112C293.199 112 295.843 111.573 298.058 110.721C300.273 109.869 301.975 108.678 303.165 107.149C304.389 105.591 305 103.783 305 101.725C305 99.7258 304.423 98.0353 303.265 96.6534C302.141 95.2424 300.571 94.14 298.554 93.3464C296.537 92.523 294.207 92.0086 291.562 91.8029L288.785 91.5824C287.132 91.4646 285.942 91.068 285.215 90.3916C284.488 89.7156 284.124 88.9216 284.124 88.0106C284.124 87.3047 284.323 86.6582 284.719 86.0702C285.116 85.4527 285.71 84.9678 286.504 84.6148C287.331 84.2622 288.339 84.0857 289.529 84.0857C290.785 84.0857 291.827 84.2914 292.653 84.7032C292.835 84.7902 293.008 84.8832 293.17 84.982L293.209 85.0064C293.27 85.0437 293.33 85.0824 293.388 85.1214C293.89 85.4627 294.29 85.867 294.587 86.3347C295.016 86.9816 295.232 87.7017 295.232 88.4956H303.165C303.165 86.3788 302.62 84.5413 301.53 82.9833C300.438 81.3958 298.868 80.1758 296.819 79.323C294.802 78.4411 292.372 78 289.529 78C286.818 78 284.471 78.4119 282.487 79.2349C280.504 80.0288 278.95 81.1754 277.827 82.6744C276.735 84.1738 276.189 85.9526 276.189 88.0106C276.189 90.862 277.265 93.155 279.413 94.8899C281.562 96.6243 284.438 97.6238 288.042 97.8883L290.769 98.1088C292.983 98.2853 294.587 98.6823 295.579 99.2993C296.57 99.8873 297.066 100.696 297.066 101.725C297.066 102.198 296.979 102.641 296.805 103.055C296.676 103.363 296.499 103.654 296.273 103.93C295.743 104.547 294.967 105.032 293.942 105.385C292.918 105.738 291.645 105.914 290.124 105.914C288.438 105.914 287.066 105.709 286.009 105.296C284.95 104.856 284.157 104.282 283.627 103.577C283.132 102.871 282.885 102.107 282.885 101.284H275C275 103.371 275.578 105.223 276.735 106.84C277.892 108.428 279.595 109.692 281.844 110.633Z" fill="#4876EE"/>
<path d="M169 111V63.6052H182.527V79.2491C183.174 74.7833 184.809 71.1823 187.427 68.4484C190.977 64.8162 196.088 63 202.764 63H205V74.935H200.739C196.054 74.935 192.432 75.9726 189.876 78.0485C187.319 80.0666 186.04 83.0073 186.04 86.87V111H169Z" fill="#4876EE"/>
<path fill-rule="evenodd" clip-rule="evenodd" d="M209 63V111.349H233.876C241.62 109.884 244.982 94.8963 233.876 89.3721C222.771 83.8479 218.073 93.119 218.073 86.7781V63H209ZM233.876 97.4302C233.876 87.919 218.073 96.2894 218.073 96.2894V105.008C218.073 105.008 233.876 110.32 233.876 102.558V97.4302Z" fill="#4876EE"/>
</svg>
